<svg fill="none" height="1em" style="flex:none;line-height:1" viewBox="0 0 24 24" width="1em" xmlns="http://www.w3.org/2000/svg"><title>Baidu AI Image</title><path d="M12 2.5a3.5 3.5 0 0 0-3.5 3.5c0 1.22.624 2.297 1.572 2.93a5.25 5.25 0 0 0-3.572 4.97V20a1.5 1.5 0 0 0 1.5 1.5h8A1.5 1.5 0 0 0 17.5 20v-6.1a5.25 5.25 0 0 0-3.572-4.97A3.49 3.49 0 0 0 15.5 6 3.5 3.5 0 0 0 12 2.5z" fill="#3385ff" fill-opacity=".18" stroke="#3385ff" stroke-width="1.2" stroke-linejoin="round"/><path d="M9.2 4.6a1.1 1.1 0 1 1-2.2 0 1.1 1.1 0 0 1 2.2 0z" fill="#3385ff"/><path d="M16.8 3.3a1.3 1.3 0 1 1-2.6 0 1.3 1.3 0 0 1 2.6 0z" fill="#3385ff"/><path d="M8.6 11.4l3.4-2 3.4 2" stroke="#3385ff" stroke-width="1.3" stroke-linecap="round" stroke-linejoin="round"/><path d="M10.8 16l1.2-1.4L13.2 16" stroke="#3385ff" stroke-width="1.3" stroke-linecap="round" stroke-linejoin="round"/></svg>
